PathFileType	4	(X/Y/Z)	s02c0302.trc
DataRate	CameraRate	NumFrames	NumMarkers	Units	OrigDataRate	OrigDataStartFrame	OrigNumFrames
200	200	4	51	mm	200	1000	2000
Frame#	Time	racr			lacr			c7			jug			rlel			rdr			llel			ldr			s2			lic			ric			lasi			rasi			rpsi			lpsi			rgt			lgt			rth1			rth2			rth3			rth4			rlfc			rmfc			rsh1			rsh2			rsh3			rsh4			rlmal			rmmal			rcal			rtoe			rmt5			rmt1			lth1			lth2			lth4			lth3			llfc			lmfc			lsh1			lsh2			lsh3			lsh4			llmal			lmmal			lcal			ltoe			lmt5			SBIKE			LBIKE			RBIKE			
		X1	Y1	Z1	X2	Y2	Z2	X3	Y3	Z3	X4	Y4	Z4	X5	Y5	Z5	X6	Y6	Z6	X7	Y7	Z7	X8	Y8	Z8	X9	Y9	Z9	X10	Y10	Z10	X11	Y11	Z11	X12	Y12	Z12	X13	Y13	Z13	X14	Y14	Z14	X15	Y15	Z15	X16	Y16	Z16	X17	Y17	Z17	X18	Y18	Z18	X19	Y19	Z19	X20	Y20	Z20	X21	Y21	Z21	X22	Y22	Z22	X23	Y23	Z23	X24	Y24	Z24	X25	Y25	Z25	X26	Y26	Z26	X27	Y27	Z27	X28	Y28	Z28	X29	Y29	Z29	X30	Y30	Z30	X31	Y31	Z31	X32	Y32	Z32	X33	Y33	Z33	X34	Y34	Z34	X35	Y35	Z35	X36	Y36	Z36	X37	Y37	Z37	X38	Y38	Z38	X39	Y39	Z39	X40	Y40	Z40	X41	Y41	Z41	X42	Y42	Z42	X43	Y43	Z43	X44	Y44	Z44	X45	Y45	Z45	X46	Y46	Z46	X47	Y47	Z47	X48	Y48	Z48	X49	Y49	Z49	X50	Y50	Z50	X51	Y51	Z51	
1000	5.0000	752.789148	1205.663911	-164.030239	713.849604	1268.313138	-506.595051	734.765572	1274.746504	-340.565814	654.592495	1155.896717	-338.686109	635.503305	1002.043904	-33.677558	734.737631	847.079668	-122.814418	569.792648	1026.586195	-591.946647	754.106427	845.928498	-531.386537	193.446111	1217.224941	-274.329884	309.046995	1215.083834	-433.511880	323.821182	1154.634595	-145.070592	341.980361	1167.866211	-418.762015	360.052911	1116.289007	-180.551716	220.763418	1238.714324	-227.760666	224.665486	1259.678788	-310.068609	261.281080	1075.674459	-125.943460	255.245176	1138.856961	-472.257828	312.918494	988.637176	-118.554696	350.167849	908.522309	-124.641875	348.250673	823.802666	-107.942111	379.395130	913.480104	-147.879694	347.057232	686.875542	-146.137392	329.098763	674.587564	-252.222771	306.131454	587.990198	-125.185637	289.216701	501.737123	-141.967565	237.372149	433.782331	-136.100466	302.507400	498.686773	-179.297858	175.492196	326.750134	-142.287789	192.252473	342.255553	-222.030748	93.303592	333.080858	-185.344440	299.908237	132.842799	-193.343620	210.883457	193.877379	-132.704849	237.352943	188.280061	-238.961471	373.377820	1066.192007	-492.181466	452.555620	1031.474199	-493.928826	473.887557	1056.189496	-475.628357	504.502551	959.258340	-500.477835	584.001392	891.953334	-485.261300	587.442075	859.505610	-374.172830	542.238011	800.983586	-503.839883	503.467271	724.626414	-490.685924	429.260199	673.467548	-497.386635	519.232554	712.892532	-454.583498	342.087505	594.480083	-487.138580	354.707633	587.405907	-409.599774	257.630259	570.798451	-452.986133	514.406872	442.398256	-440.928041	411.878534	462.974267	-508.863847	-129.126574	869.824978	-314.218348	32.463500	82.380430	-515.296214	32.469867	82.579955	-115.295912	
1001	5.0050	753.743721	1206.915682	-167.109509	710.853569	1267.001130	-510.538427	733.867389	1274.634249	-344.060836	653.311679	1156.083902	-340.451970	636.061015	1003.590879	-35.709253	734.736676	847.188818	-123.062286	565.618619	1024.610595	-591.619661	754.004527	845.990788	-531.525378	193.280777	1220.885325	-274.917624	309.128548	1215.288351	-433.977598	322.909597	1158.020452	-145.014214	341.514158	1168.028662	-418.350518	359.053146	1118.889406	-179.816283	220.468335	1242.951176	-227.799363	224.546482	1262.411103	-310.481164	260.506339	1078.775146	-124.802725	254.459112	1138.881540	-471.609846	312.519907	991.470146	-118.659226	351.366529	911.955970	-124.212420	350.789440	827.359574	-107.396450	380.741517	917.472529	-147.208856	351.446968	690.205240	-144.874505	333.537810	677.636317	-251.345610	308.306903	591.327651	-124.672380	288.990330	505.579702	-141.675884	234.864029	439.066503	-136.508527	302.330190	502.362020	-178.978107	170.083753	333.755201	-142.487747	187.500856	349.155068	-222.333235	88.036808	341.164653	-185.877478	291.885658	138.239351	-193.257160	203.577606	200.530809	-132.793773	229.753664	194.033814	-239.442014	371.661630	1064.430427	-492.593898	450.028361	1028.262997	-495.060017	472.098206	1052.553948	-476.777288	500.967508	955.151931	-501.459579	578.931707	885.858347	-486.963678	594.289618	848.921138	-381.767517	537.812577	793.723678	-505.671363	500.512740	716.516998	-491.676725	427.501528	663.836611	-498.095829	516.596488	705.511832	-455.815117	341.694944	584.358247	-486.568135	354.627283	577.209438	-409.013634	257.897148	556.307133	-452.412836	520.913447	441.086626	-442.215798	417.093529	456.341085	-509.628737	-129.215479	869.731428	-314.695113	32.390801	82.253161	-515.260835	32.427655	82.579831	-115.331062	
1002	5.0100	754.549864	1208.311935	-170.222974	707.894577	1265.847250	-514.490600	732.976746	1274.449841	-347.342738	651.924559	1156.442531	-342.196939	636.775479	1005.131249	-37.449512	734.699852	847.335847	-123.470123	561.664366	1022.526958	-591.293132	753.893044	846.058632	-531.664302	193.281706	1222.913194	-274.970482	309.257174	1215.185174	-434.038036	322.210104	1161.430417	-144.850900	341.072071	1167.816944	-417.884556	357.024263	1120.893501	-180.851530	220.082134	1246.900834	-228.119502	224.437416	1264.814851	-311.159943	260.174949	1082.433428	-123.307353	253.817894	1138.824241	-471.229710	312.764483	994.207000	-118.419003	352.941177	915.379333	-123.952509	354.286349	831.044377	-106.433251	382.428290	921.258714	-146.638393	356.402975	693.449999	-143.794655	338.919608	680.629601	-250.367131	311.152327	594.751304	-124.049862	289.362320	509.503061	-141.334310	233.427635	444.637375	-136.239497	302.666438	506.039772	-178.608077	165.296439	341.057364	-142.475958	183.389502	356.228142	-222.342245	83.389526	349.707799	-186.185277	284.141370	143.911262	-193.243938	196.641143	207.232897	-132.913332	223.103398	200.403412	-239.386705	370.051356	1062.316287	-493.051705	447.513777	1024.631363	-496.122450	470.276849	1048.473666	-477.901436	497.014552	950.443942	-502.621928	574.074703	878.625921	-488.693087	578.249725	846.507141	-379.323562	533.026332	785.513180	-507.013023	497.386566	707.651424	-492.295164	425.617439	653.279260	-497.886112	513.586991	697.492378	-456.227683	341.500908	573.509822	-485.764991	354.753329	566.475169	-408.243817	258.692820	541.631796	-450.924657	526.756022	438.806447	-443.798098	421.678315	449.151639	-510.306713	-129.304021	869.611619	-315.059161	32.325908	82.138632	-515.273857	32.304205	82.625261	-115.351932	
1003	5.0150	755.412276	1210.098113	-172.632660	705.032060	1264.475671	-518.476977	732.162797	1274.310414	-350.446140	650.617161	1156.911039	-343.496970	637.529480	1006.668336	-39.123916	734.712737	847.538579	-123.909086	557.838183	1020.414116	-590.984605	753.771979	846.131908	-531.803247	193.470746	1224.922181	-274.890138	309.515256	1214.767868	-434.089090	321.337661	1164.323743	-144.906202	340.659590	1167.246421	-417.394829	355.939297	1123.287589	-180.646228	219.912180	1250.179450	-228.713644	224.353808	1266.875398	-312.074412	259.693710	1085.364828	-122.220996	253.158263	1138.521980	-470.959902	312.976848	996.666701	-119.485395	354.926571	918.880890	-123.820317	357.786938	834.550756	-105.965251	384.466079	925.286460	-146.248280	361.800809	696.637473	-142.654577	345.042579	683.653666	-249.514871	314.539756	598.156234	-123.432756	290.318833	513.467644	-140.779006	232.542970	450.246453	-135.949087	303.540923	509.666334	-178.096661	161.086407	348.709282	-142.157863	179.874241	363.838872	-222.058613	79.407562	358.775939	-186.286042	276.782451	149.689135	-193.064093	190.161984	214.364777	-132.833200	216.435599	207.074772	-239.536254	368.407940	1059.934738	-493.561040	445.005349	1020.592515	-497.168976	468.372583	1043.895817	-479.155237	492.926928	945.370967	-503.662406	567.783857	871.314037	-489.235460	573.189864	839.682875	-381.100920	528.068638	776.806381	-508.229069	494.214860	698.278933	-492.558735	423.784806	642.139613	-497.664408	510.624250	689.064188	-456.366744	341.365805	562.363592	-484.584899	355.683172	555.306475	-407.114107	259.968801	526.789927	-448.003899	532.667489	435.476221	-446.626786	425.647462	441.476835	-510.849621	-129.328922	869.556441	-315.266518	32.277712	82.078410	-515.313498	32.422113	82.527066	-115.218522	
